<?xml version="1.0" encoding="utf-8"?>
<!-- Generator: Adobe Illustrator 24.1.0, SVG Export Plug-In . SVG Version: 6.00 Build 0)  -->
<svg version="1.1" id="Layer_1" xmlns="http://www.w3.org/2000/svg" xmlns:xlink="http://www.w3.org/1999/xlink" x="0px" y="0px"
	 viewBox="0 0 541.8 47.9" style="enable-background:new 0 0 541.8 47.9;" xml:space="preserve">
<style type="text/css">
	.st0{fill:#FBFCFD;}
	.st1{fill:#FEFDFB;}
	.st2{fill:#F3A81C;}
	.st3{fill:#005392;}
	.st4{fill:#002754;}
	.st5{fill:#C63627;}
</style>
<g>
	<path class="st0" d="M0,0c0-5.7,0.1-11.3-0.1-17c0-1.7,0.3-2.3,2.1-2c0.8,0.1,1.7,0,2.5,0c177.6,0,355.2,0,532.8-0.1
		c3.7,0,4.9,0.8,4.6,4.6c-0.4,4.8-0.1,9.6-0.1,14.5c-1.5-0.1-3-0.1-4.5-0.1c-177.6,0-355.2,0-532.8,0C3-0.1,1.5-0.1,0,0z"/>
	<path class="st1" d="M541.8,47.9c0,5.7-0.1,11.3,0.1,17c0,1.7-0.3,2.3-2.1,2c-0.8-0.1-1.7,0-2.5,0c-179.1,0-358.2,0-537.3,0
		c0-6.3,0-12.6,0-19c1.5,0,3,0.1,4.5,0.1c177.6,0,355.2,0,532.8,0C538.8,48,540.3,47.9,541.8,47.9z"/>
	<path class="st2" d="M541.8,47.9c-1.5,0-3,0.1-4.5,0.1c-177.6,0-355.2,0-532.8,0c-1.5,0-3-0.1-4.5-0.1c0-4.7,0-9.3,0-14
		c3.5-0.4,6.9-0.6,10.4-1.1c31.8-4.8,63.8-5.7,95.8-6.6c9.8-0.3,19.6,0.3,29.4,0.5c24.4,0.5,48.8,1.6,73.2,3.1c24,1.4,48,3.1,72,5
		c19.5,1.5,39.1,3,58.6,3.9c27.5,1.3,55.1,2.2,82.7,3c11,0.3,21.9-0.3,32.9-0.6c17.4-0.5,34.8-1.6,52.2-2.9
		c11.6-0.9,23-3.3,34.7-3.3C541.8,39.2,541.8,43.6,541.8,47.9z"/>
	<path class="st3" d="M0,0c1.5-0.1,3-0.1,4.5-0.1c177.6,0,355.2,0,532.8,0c1.5,0,3,0.1,4.5,0.1c0,4.7,0,9.3,0,14
		c-6.9,1-13.7,2.3-20.6,2.9c-17.3,1.5-34.7,3.6-52,3.8c-18.4,0.1-36.8,1.3-55.3,0.7c-27.9-0.9-55.8-1.9-83.6-3.4
		c-11.8-0.6-23.5-1.2-35.3-2.1c-20.2-1.5-40.3-3.3-60.4-4.8c-15.7-1.2-31.4-2.2-47.2-2.9c-19.7-0.9-39.5-1.7-59.3-2
		c-11.4-0.2-22.9-0.1-34.4,0.6C78.4,7.5,63.2,7.8,47.9,8.7c-16.1,1-32,3.1-47.9,5.2C0,9.3,0,4.7,0,0z"/>
	<path class="st4" d="M0,14c15.9-2.1,31.8-4.2,47.9-5.2c15.3-0.9,30.5-1.2,45.8-2.1c11.5-0.6,22.9-0.7,34.4-0.6
		c19.8,0.3,39.5,1.1,59.3,2c15.7,0.7,31.5,1.8,47.2,2.9c20.2,1.5,40.3,3.3,60.4,4.8c11.7,0.9,23.5,1.5,35.3,2.1
		c27.9,1.5,55.7,2.5,83.6,3.4c18.5,0.6,36.9-0.6,55.3-0.7c17.4-0.1,34.7-2.3,52-3.8c6.9-0.6,13.8-1.9,20.6-2.9c0,3.3,0,6.7,0,10
		c-180.6,0-361.2,0-541.8,0C0,20.6,0,17.3,0,14z"/>
	<path class="st5" d="M0,23.9c180.6,0,361.2,0,541.8,0c0,3.7,0,7.3,0,11c-11.7,0-23.1,2.4-34.7,3.3c-17.4,1.4-34.8,2.5-52.2,2.9
		c-11,0.3-21.9,1-32.9,0.6c-27.6-0.9-55.1-1.7-82.7-3c-19.6-0.9-39.1-2.4-58.6-3.9c-24-1.9-48-3.6-72-5c-24.4-1.5-48.8-2.6-73.2-3.1
		c-9.8-0.2-19.6-0.8-29.4-0.5c-32,0.9-64,1.8-95.8,6.6C6.9,33.3,3.5,33.5,0,33.9C0,30.6,0,27.3,0,23.9z"/>
</g>
</svg>
