<?xml version="1.0" encoding="utf-8"?>
<!-- Generator: Adobe Illustrator 24.1.0, SVG Export Plug-In . SVG Version: 6.00 Build 0)  -->
<svg version="1.1" id="Layer_1" xmlns="http://www.w3.org/2000/svg" xmlns:xlink="http://www.w3.org/1999/xlink" x="0px" y="0px"
	 viewBox="0 0 149.2 172.2" style="enable-background:new 0 0 149.2 172.2;" xml:space="preserve">
<style type="text/css">
	.st0{fill:#585858;}
	.st1{clip-path:url(#SVGID_2_);fill:#A2A2A2;}
	.st2{clip-path:url(#SVGID_2_);fill:#CCCCCC;}
	.st3{clip-path:url(#SVGID_2_);fill:#B4B4B4;}
	.st4{clip-path:url(#SVGID_2_);fill:#777777;}
	.st5{clip-path:url(#SVGID_2_);fill:#FEFEFE;}
	.st6{clip-path:url(#SVGID_2_);fill:#E5E5E5;}
</style>
<polygon class="st0" points="149.2,129.2 74.6,172.2 0,129.2 0,43.1 74.6,0 149.2,43.1 "/>
<g>
	<g>
		<defs>
			<polyline id="SVGID_1_" points="141.8,34.1 141.8,138.1 7.3,138.1 7.3,34.1 			"/>
		</defs>
		<clipPath id="SVGID_2_">
			<use xlink:href="#SVGID_1_"  style="overflow:visible;"/>
		</clipPath>
		<path class="st1" d="M43.7,203.9c0.4-1.4,1.8-1.4,2.7-2.1c1.5-1.1,2.9-2.2,4.3-3.3c0.3-0.3,0.7-0.6,0.6-1
			c3.9,2.2,7.7,4.5,11.6,6.8c4.9,2.9,9.7,5.8,14.7,8.3c3.3,1.7,6.6,3.5,9.9,5.2c0.3,0.2,0.7,0.2,0.9,0.7c-0.4,0.2-0.7,0.1-1.1,0.1
			c-6.9,0-13.7,0-20.6,0c-0.8,0-1.4-0.2-2-0.6c-1.9-1.3-3.8-2.5-5.8-3.8c2.4,0,4.8,0,7.2-0.1c1.6,0,2.7-1.2,2.6-2.9
			c0-1.6-1.2-2.8-2.7-2.8c-5.6,0-11.1,0-16.7-0.1C47.6,206.8,45.7,205.3,43.7,203.9z"/>
		<path class="st2" d="M69-32.6c-3.1-1.6-6.1-3.4-9.3-4.9c-4.2-2.1-8.4-4-12.6-6c-0.5-0.3-1.1-0.4-1.5-0.9c1.4-0.4,2.9-0.7,4.3-1.3
			c1.4-0.6,3.1-0.9,3.8-2.6c0.2-0.2,0.5-0.2,0.8-0.2c3.4,0,6.8,0,10.3,0c0.3,0,0.7,0,1,0.2c2.8,1.6,5.6,3.3,8.4,4.9
			c-1.1,0-2.2,0-3.3,0c-1.2,0-2.6,1.6-2.6,2.8c0,1.3,1.3,2.7,2.6,2.8c0.7,0,1.4,0,2,0.1c0.1,0.5-0.3,0.8-0.6,1.2
			C71.3-35,69.7-34.1,69-32.6z"/>
		<path class="st1" d="M119.9-6.1c-2,0.8-4,1.4-6.1,1.9c-1.1-1.4-2.6-2.3-4-3.3c-3.1-2.1-6.3-4.1-9.5-6.2c2.6,0,5.2,0,7.8-0.1
			c1.7,0,2.3-0.5,2.4-2.2c0.1-0.7,0-1.4-0.2-2c-0.3-1-0.8-1.5-2-1.5c-4.3,0.1-8.6,0-13,0c2.5-1.5,4.9-3,7.4-4.5
			c0.9-0.5,1.5-1.4,2.7-1.3c2.6,1.6,5.2,3.2,7.5,5.3c3.7,3.3,5.6,7.6,6.6,12.3C119.7-7.2,119.8-6.7,119.9-6.1z"/>
		<path class="st1" d="M108.5-27.9c-1.3-3.4-3.2-6.5-5.2-9.4c-0.2-0.3-0.5-0.4-0.8-0.6c0.4-0.2,0.7-0.5,1.1-0.7
			c2.7-1.5,5.6-2.8,8.1-4.7c2-1.2,3.8-2.5,4.7-4.7c0.2-0.4,0.4-0.5,0.8-0.5c0.4,0,0.9,0,1.3,0c2.3,0,2.3,0,2.3,2.2
			c0.1,6.6-3.2,11.5-8.1,15.4C111.4-29.8,109.9-28.9,108.5-27.9z"/>
		<path class="st1" d="M69-32.6c0.8-1.5,2.3-2.4,3.2-3.8c0.3-0.4,0.7-0.7,0.6-1.2c4.3,0,8.5,0,12.8,0c2.5,1.5,5,3,7.6,4.6
			c-0.6,1.1-1.8,1.3-2.7,1.9c-2.7,1.6-5.4,3.2-8.1,4.8c-0.4,0.2-0.7,0.5-1.2,0.5C77-28.1,73-30.4,69-32.6z"/>
		<path class="st3" d="M85.6-37.6c-4.3,0-8.5,0-12.8,0c-0.7,0-1.4,0-2-0.1c-1.3-0.1-2.7-1.5-2.6-2.8c0-1.3,1.4-2.8,2.6-2.8
			c1.1,0,2.2,0,3.3,0c5.9,0,11.9,0,17.8,0c0.7,0,1.5,0,2.2,0c0.6,0.6,1.1,1.2,1.7,1.7c0.8,0.7,1.1,1.2,0.2,2
			c-0.5,0.5-1.1,1.1-1.4,1.8C91.6-37.7,88.6-37.7,85.6-37.6z"/>
		<path class="st4" d="M49.5,208.2c5.6,0,11.1,0,16.7,0.1c1.6,0,2.7,1.2,2.7,2.8c0,1.7-1.1,2.9-2.6,2.9c-2.4,0-4.8,0-7.2,0.1
			c-0.6-0.3-1.3-0.2-1.9-0.2c-3.6,0-7.2,0-10.9-0.1c0.5-0.7,1-1.3,1.6-2c0.5-0.5,0.5-1-0.1-1.5c-0.7-0.6-1.5-1.1-2-1.9
			C47,208.2,48.3,208.7,49.5,208.2z"/>
		<path class="st3" d="M45.8,208.5c0.5,0.8,1.3,1.3,2,1.9c0.6,0.5,0.6,0.9,0.1,1.5c-0.5,0.6-1.1,1.3-1.6,2c-4.9,0-9.8,0-14.7,0.1
			c0.4-2.2,1.4-4.1,3-5.6C38.4,208.4,42.1,208.4,45.8,208.5z"/>
		<path class="st4" d="M94.6-37.7c0.3-0.7,0.8-1.3,1.4-1.8c0.9-0.9,0.6-1.4-0.2-2c-0.6-0.5-1.1-1.1-1.7-1.7c5.9,0,11.8,0,17.7,0
			c-2.5,1.9-5.4,3.1-8.1,4.7c-0.4,0.2-0.7,0.5-1.1,0.7c-0.3,0.1-0.6,0.2-0.8,0.3C99.4-37.7,97-37.7,94.6-37.7z"/>
		<path class="st1" d="M53.6-48.3c-0.7,1.7-2.4,2-3.8,2.6c-1.4,0.6-2.8,0.9-4.3,1.3c-2.5-1.2-5.1-2.4-7.5-3.8c0-0.1,0-0.1,0.1-0.2
			C43.3-48.4,48.4-48.3,53.6-48.3z"/>
		<path class="st2" d="M38.1-48.4c0,0.1,0,0.1-0.1,0.2c-0.1,0-0.3-0.1-0.3-0.1C37.8-48.6,38-48.5,38.1-48.4z"/>
		<path class="st5" d="M96.7,12c-2.7,0-5.5-0.1-8.2-0.1c6.4-2.7,12.9-5.4,19.3-8.1c1.4-0.6,2.7-1.3,4.2-1.6c-2.2,1.9-4.7,3.4-7.1,5
			c-0.7,0.4-1.3,0.9-2,1.3C100.8,9.5,98.9,11,96.7,12z"/>
		<path class="st5" d="M45.8,208.5c-3.7,0-7.4-0.1-11.1-0.1c0-0.9,0.9-1.2,1.3-1.9c1.2-1.7,2.8-2.9,4.2-4.4c0.5-0.5,1-0.4,1.4,0.1
			c0.7,0.6,1.4,1.1,2.1,1.7c1.9,1.5,3.9,2.9,5.8,4.4C48.3,208.7,47,208.2,45.8,208.5z"/>
		<path class="st5" d="M100.4-13.8c3.2,2.1,6.4,4.1,9.5,6.2c1.4,1,2.9,1.9,4,3.3c-0.7,0.3-1.4,0.5-2.2,0.6c-0.5,0-1-0.1-1.5-0.1
			c-9.4,0-18.8,0-28.2,0c-4.7,0-9.5,0-14.2,0c0.8-1.2,2.2-1.6,3.3-2.3c4.2-2.8,8.8-4.9,13.3-7.3c0.4-0.2,0.9-0.3,1.3-0.5
			c2.1,0,4.3,0,6.4,0C94.7-13.8,97.5-13.8,100.4-13.8z"/>
		<path class="st5" d="M93.5,1.9c-5.8,1.8-11.5,3.6-17.3,5.4c-4.8,1.5-9.6,2.9-14.4,4.4c-0.4,0.1-0.8,0.3-1.2,0.3
			c-5.1,0-10.2,0-15.3,0c1.6-2,3.7-3.5,5.8-5c2.1-1.6,4.3-3,6.4-4.5c0.5-0.3,1-0.6,1.5-0.6c7.3,0,14.6,0,21.9,0c0.3,0,0.5,0,0.7-0.2
			c0.5,0.2,1.1,0.2,1.6,0.2C86.6,1.9,90,1.9,93.5,1.9z"/>
		<path class="st4" d="M100.4-13.8c-2.8,0-5.6-0.1-8.4-0.1c-2.1,0-4.3,0-6.4,0c3.3-1.9,6.5-3.9,9.9-5.6c4.3,0,8.7,0.1,13,0
			c1.2,0,1.7,0.4,2,1.5c0.2,0.7,0.3,1.3,0.2,2c-0.2,1.7-0.8,2.2-2.4,2.2C105.6-13.8,103-13.8,100.4-13.8z"/>
		<path class="st1" d="M81.5,1.7c-0.2,0.2-0.5,0.2-0.7,0.2c-7.3,0-14.6,0-21.9,0c0,0,0-0.1,0-0.1c2.7-2.1,5.6-4.1,8.7-5.5
			c4.7,0,9.5,0,14.2,0C80.4-2.1,80-0.2,81.5,1.7z"/>
		<path class="st5" d="M94.6-37.7c2.4,0,4.8,0.1,7.2,0.1c-2.5,1.5-5.1,2.9-7.6,4.4c-0.3,0.2-0.6,0.2-1,0.2c-2.5-1.5-5-3-7.6-4.6
			C88.6-37.7,91.6-37.7,94.6-37.7z"/>
		<path class="st5" d="M85.8,12c-5.9,0-11.8,0-17.6,0c-1.3,0-2.5,0-3.8,0c0-0.1,0-0.2,0-0.3C75.2,8.4,86.1,5.1,97,1.8
			c0.5,0,1,0.1,1.5,0.1c3.8,0,7.6,0,11.5,0c-6.9,2.9-13.7,5.8-20.6,8.7C88.2,11.1,87,11.5,85.8,12z"/>
		<path class="st6" d="M81.5,1.7c-1.5-1.9-1.1-3.7,0.4-5.5c9.4,0,18.8,0,28.2,0c0.5,0,1,0,1.5,0.1c-4.9,1.5-9.8,3-14.6,4.6
			c-1.2,0.4-2.4,0.7-3.5,1.1c-3.4,0-6.9,0-10.3,0C82.6,1.9,82,1.9,81.5,1.7z"/>
		<path class="st6" d="M110,1.9c-3.8,0-7.6,0-11.5,0c-0.5,0-1-0.1-1.5-0.1c5.6-1.7,11.2-3.4,16.7-5.1c0.6-0.2,1.2-0.3,1.7-0.4
			c0.3,0,0.6,0,0.9,0c0.4,0,0.8-0.1,1,0.3c0.3,0.5-0.2,0.8-0.4,1.1c-0.6,0.7-1.2,1.3-1.8,2c0,0,0,0,0,0c-0.1,0.1-0.2,0.1-0.3,0.2
			C113.3,0.5,111.6,1.2,110,1.9z"/>
		<path class="st1" d="M120.2-5.3c-0.2,1,0.2,1.9,0.3,2.8c-1.7,0.8-3.4,1.7-5.3,2.1c0.6-0.7,1.2-1.3,1.8-2c0.2-0.3,0.7-0.6,0.4-1.1
			c-0.2-0.4-0.7-0.3-1-0.3c-0.3,0-0.6,0-0.9,0C116.9-4.6,118.6-4.9,120.2-5.3z"/>
		<path class="st1" d="M115-0.2c0.1-0.1,0.2-0.1,0.3-0.2C115.2-0.2,115.1-0.2,115-0.2z"/>
		<path class="st4" d="M59.7,87.3c6.5,0,13.1,0,19.6,0c2.5,1.7,2.7,3.6,0.7,5.6c-1.6,0-3.1,0.1-4.7,0.1c-9.1,0-18.2,0-27.3,0
			c-1.7,0.1-2.9-0.3-3.4-1.6c-0.5-1.4,0-2.7,1.2-3.9c0.4-0.4,1.2-0.2,1.8-0.2C51.6,87.3,55.6,87.3,59.7,87.3z"/>
		<path class="st2" d="M108.8,19c-2.3,1.9-5,3.3-7.5,4.9c-8.1,5-16.5,9.4-24.9,13.9c-4.6,2.4-9,5.3-13.4,8.1c-1,0.6-0.4,0.9,0.2,1.3
			c3,2,6,3.9,9.1,5.8c0.3,0.2,0.6,0.3,0.8,0.6c-0.7,0.3-1,1-1.4,1.6c-1,1.3-2.2,2.6-2.5,4.4c-2.5,0.3-4.9,0-7.4,0.1
			c-0.1-0.3-0.3-0.4-0.5-0.5c-2.4-1.7-4.9-3.4-7.3-5.2c-1.1-0.8-1.8-1-2.9,0c-0.7,0.7-1.7,1.2-2.4,1.8c-1.4,1.2-3,2.2-4,3.9
			c-2.1,1.4-3.4,3.5-4.8,5.5c-1.1,1.3-1.9,2.7-2.6,4.2c-0.4,0.9-1,1.7-0.6,2.8c-0.4,0-0.5,0.3-0.6,0.6c-0.2,1-0.5,2.1-0.7,3.1
			c-0.4,1.7-0.2,3.4-0.8,5.1c-1.1-2.4-1.4-5-1.7-7.5c-0.6-4.9-0.2-9.8,1-14.6c0.6-2.5,1.9-4.7,3.6-6.5c1.7-1.8,3.4-3.7,5.4-5.3
			c0.3-0.2,0.5-0.5,0.5-0.9c1.2-0.4,1.9-1.3,2.8-2.1c1.7-1.5,3.8-2.7,5.4-4.3c2.3-1.1,4.3-2.8,6.4-4.2c1.4-1,3-1.7,4.2-2.9
			c3.2-1.7,6.2-3.8,9.2-5.7c3-1.7,6.1-3.4,9.1-5.2c2.2-1.3,4.6-2.5,6.6-4.1c3.3-1.7,6.4-3.6,9.5-5.7c2.2-1,4.1-2.5,6.2-3.6
			c0,0.5,0.3,0.9,0.6,1.3C105.5,12.6,107.3,15.7,108.8,19z"/>
		<path class="st2" d="M102.9,160.3c-2.4,2.3-5.2,4-8.1,5.6c-12.3,6.6-24.5,13.4-36,21.4c-3.4,2.3-6.6,4.8-9.8,7.4
			c-0.7,0.5-0.6,0.8,0,1.2c0.8,0.5,1.6,1.1,2.5,1.6c0,0.5-0.3,0.8-0.6,1c-1.4,1.1-2.9,2.3-4.3,3.3c-0.9,0.7-2.4,0.7-2.7,2.1
			c-0.7-0.6-1.4-1.1-2.1-1.7c-0.5-0.4-0.9-0.6-1.4-0.1c-1.4,1.4-3.1,2.7-4.2,4.4c-0.4,0.6-1.2,1-1.3,1.9c-1.7,1.5-2.6,3.4-3,5.6
			c-0.5,1.1-0.3,2.2-0.3,3.3c0,1-0.2,1.4-1.2,1.3c-2.9,0-2.8,0-3.4-2.9c-1.6-7.3,0.4-13.7,4.8-19.4c1.5-1.9,1.9-3.3,0.3-5.2
			c-0.3-0.3-0.6-0.8-0.5-1.3c0.5-0.1,1-0.2,1.5-0.3c2.1-0.4,4-1,5.6-2.6c0.6,0.5,1,1.3,2,0.4c1.3-1.1,2.8-2.1,4.1-3.2
			c1.8-1.5,4-2.6,5.6-4.3c2.8-1.7,5.6-3.6,8.2-5.7c0.2-0.1,0.5-0.2,0.7-0.3c3.4-2.1,6.9-4.3,10.3-6.5c1.7-1.1,3.6-1.9,5.2-3.2
			c3.4-1.8,6.7-3.5,10.1-5.2c0.2-0.1,0.4-0.2,0.4-0.5c1.8-0.4,3.2-1.5,4.8-2.4c2.6-1.4,5.1-2.9,7.6-4.4c0.7,0.1,0.8,0.7,1.1,1.1
			C100.3,155.1,101.5,157.7,102.9,160.3z"/>
		<path class="st2" d="M28.6,180.7c-0.8-1.6-0.8-3.3-1-5c-0.8-8.7,1.4-16.6,6.6-23.7c5.6-7.7,13.1-13.4,21-18.5
			c7.9-5.2,16.2-9.7,24.6-14.1c0.3-0.2,0.7-0.3,0.8-0.8c0.5,0.1,0.9-0.2,1.3-0.4c3.4-2,6.7-4,10.1-6.1c0.3-0.2,0.4-0.4,0.4-0.7
			c0.6,0.1,1-0.2,1.4-0.5c1.1-0.7,2.1-1.4,3.2-2.1c0.1,0.1,0.3,0.1,0.3,0.2c2.2,2.7,3.9,5.8,5.4,8.9c0.3,0.6,0.1,1-0.5,1.4
			c-1.4,0.9-2.8,1.9-4.3,2.8c-2,1.3-4.2,2.3-6.1,4c-1.8,0.5-3.3,1.7-4.8,2.7c-0.1,0.1-0.2,0.1-0.3,0.2c-3.1,1.6-6,3.5-8.9,5.4
			c-5.1,2.9-10.1,5.9-15,9.3c-2.1,1.1-3.9,2.6-5.9,3.9c-0.8,0.5-1.7,0.9-2.3,1.8c-0.3,0.1-0.6,0.2-0.8,0.4c-2.6,1.8-5.2,3.6-7.7,5.5
			c-1.3,0.9-2.7,1.7-3.7,3c-2.3,1.6-4.3,3.5-6.2,5.7c-2.6,2.5-4.7,5.4-6.1,8.8c-0.8,1.1-0.9,2.5-1.3,3.8
			C28.6,177.9,29.1,179.4,28.6,180.7z"/>
		<path class="st2" d="M35.1,34.1c-0.9-1.3-1-2.8-1.3-4.2c-1.4-6.5-1.2-13,0.6-19.3c0.7-2.3,2-4.2,3.6-5.9C42.8-0.4,48.3-4.7,54-8.7
			c7.2-5.1,14.7-9.8,22.3-14.3c1.6-0.9,3.4-1.6,4.8-2.9c0.5,0,0.8-0.3,1.2-0.5c2.7-1.6,5.4-3.2,8.1-4.8c1-0.6,2.1-0.8,2.7-1.9
			c0.3,0,0.7,0,1-0.2c2.5-1.5,5.1-2.9,7.6-4.4c0.3-0.1,0.6-0.2,0.8-0.3c0.3,0.2,0.6,0.4,0.8,0.6c2,3,3.9,6.1,5.2,9.4
			c-0.6,0.7-1.4,1-2.1,1.6c-0.3,0.3-0.9,0.4-0.9,0.9c-1.1,0-1.8,0.8-2.7,1.3c-2.5,1.5-4.9,3-7.4,4.5c-3.4,1.7-6.6,3.7-9.9,5.6
			c-0.4,0.2-0.9,0.3-1.3,0.5c-4.5,2.4-9.1,4.6-13.3,7.3c-1.1,0.7-2.5,1.1-3.3,2.3c-3.2,1.4-6,3.4-8.7,5.5c0,0,0,0.1,0,0.1
			c-0.6,0.1-1.1,0.3-1.5,0.6C55.3,4,53.1,5.4,51,6.9c-2,1.5-4.1,3-5.8,5c-1.9,1.7-3.6,3.5-4.9,5.7c-1.1,1.2-1.8,2.7-2.5,4
			c-0.5,0.8-1.1,1.6-1,2.7c-0.4,0.3-0.4,0.8-0.5,1.3C35.4,28.3,35.2,31.2,35.1,34.1z"/>
		<path class="st1" d="M92.1,126.1c1.8-1.6,3.9-2.6,5.9-3.9c1.4-0.9,2.8-1.9,4.3-2.8c0.6-0.4,0.8-0.8,0.5-1.4
			c-1.6-3.1-3.2-6.2-5.4-8.9c-0.1-0.1-0.2-0.1-0.3-0.2c0.5-0.4,1-0.8,1.5-1.3c-0.1-0.1-0.1-0.1-0.1-0.3c-3,0-6,0-9.1,0
			c1.4-2,1.2-3.9-0.5-5.6c5.4,0,10.8,0,16.1,0c2.3,0,3.8-1.8,3.5-4.1c-0.2-1.6-0.7-3.1-1-4.6c1.8-0.1,2.3-0.6,2.5-2.4
			c0.3-2.1-0.8-3.3-2.8-3.3c-1.3,0-2.6,0-3.8,0c-3.7-3.2-7.6-5.9-11.7-8.6c2.7,0.2,5.4,0,8.1,0.2c1.2,0.1,1.7-0.5,1.9-1.4
			c0.3-1.1-1-3.2-1.7-4.2c0.5-0.7,1.7-0.5,2.5-0.9c0.9,0.8,2.1,1.6,2.8,2.2c4.5,3.8,7.8,8.4,9,14.1c0.9,4.3,1,8.8,0.1,13.2
			c-0.9,4.2-2.6,7.9-5.2,11.2c-1.5,1.8-2.9,3.7-5,4.8c-0.9,0.5-0.2,0.9,0.2,1.2c1.8,1.3,3.5,2.7,4.8,4.5c2.8,3.8,4.2,8.1,4.8,12.7
			c0.8,5.6-0.5,11.2-3.5,15.9c-2,3.1-4.4,5.9-7.5,8.1c-1.4-2.5-2.5-5.2-4.3-7.5c-0.1-0.1-0.1-0.2-0.2-0.3c0.2-0.8,0.3-1.3,0.6-2.1
			c3.1-1.8,6-3.9,8.7-6.3c0.8-0.6,1.6-1.2,2.2-1.9c0.6-0.7,0.7-1.2,0.2-2.1c-1.2-2.1-3-3.7-4.9-5.2c1.1,0,2.1,0,3.2,0
			c1.4,0,2.5-1.2,2.5-2.8c0-1.7-1.1-2.9-2.5-2.9c-5.1,0-10.1,0-15.2-0.1C92.7,127.6,92.7,127.5,92.1,126.1z"/>
		<path class="st1" d="M66.9,73.4c-0.9,1.9-0.9,3.6-0.2,5.5c-6.5,0-19.1,0.1-25.9,0.1c1.4,1.3,2.4,2.5,3.5,3.5
			c2,1.7,4.1,3.3,6.2,4.9c-0.9,0-1.9,0-2.8,0c-1.4,0-2.4,1.2-2.4,2.8c0,1.7,0.9,2.8,2.4,2.8c1.8,0,3.6,0,5.4,0.1
			c0.1,0.5-0.3,0.8-0.6,1.2c-1.3,1.3-2.8,2.4-4.3,3.4c-5.4-4.1-10.4-8.7-13-15.3c-0.2-0.5-0.3-1-0.4-1.5c0.6-1.6,0.4-3.4,0.8-5.1
			c0.2-1,0.5-2.1,0.7-3.1c0.1-0.3,0.2-0.6,0.6-0.6c0.2,0.9,0.7,1.3,1.7,1.2c2.4-0.1,4.7,0,7.1,0C50.6,73.3,61.8,73.4,66.9,73.4z"/>
		<path class="st2" d="M48.1,97.6c1.5-1,3-2.1,4.3-3.4c0.3-0.3,0.7-0.6,0.6-1.2c2.2,0,4.5,0,6.7,0c0.2,0.2,0.4,0.3,0.6,0.5
			c4,2.4,8.1,4.6,12.3,6.7c0.9,0.5,2,0.8,2.8,1.5c-2.8,0-5.5,0-8.3,0.1c-0.4,0-0.9-0.2-1.2,0.2c-0.8,1.2-1.2,2.4-0.8,3.9
			c0.3,1.3,1.1,1.7,2.3,1.6c0,1-1.4,1.3-1.3,2.4c-6.1-3.6-11.9-7.6-17.6-11.8C48.3,98,48.2,97.8,48.1,97.6z"/>
		<path class="st1" d="M112,2.1c2.7-1.5,5.7-2.5,8.5-3.7c0.9,8.8-3,15.1-10.3,19.6c-0.5,0.3-0.9,0.7-1.4,1.1
			c-1.5-3.3-3.3-6.4-5.3-9.4c-0.3-0.4-0.6-0.8-0.6-1.3c0.7-0.4,1.4-0.9,2-1.3C107.3,5.5,109.8,4,112,2.1z"/>
		<path class="st1" d="M66.1,109.9c-0.1-1.1,1.2-1.4,1.3-2.4c6.2,0,12.4,0,18.7,0c2.1,1.3,4.2,2.7,6.3,4c0,0.3-0.1,0.6-0.4,0.7
			c-3.4,2-6.7,4-10.1,6.1c-0.4,0.2-0.8,0.5-1.3,0.4C75.7,115.8,70.9,112.8,66.1,109.9z"/>
		<path class="st1" d="M35.1,34.1c0.1-2.9,0.3-5.8,1.1-8.6c0.1-0.4,0.1-0.9,0.5-1.3c0.5,0.8,1,1.7,1.5,2.5c-0.5,0.1-1-0.1-1.3,0.5
			c-0.7,1.4-1,2.7-0.3,4.2c0.3,0.7,0.7,1,1.6,1c1.7-0.1,3.3,0,5,0c2.5,2.7,5.5,4.9,8.5,7.1c-1.6,1.6-3.7,2.8-5.4,4.3
			c-0.9,0.8-1.6,1.7-2.8,2.1c-3.4-2.9-5.9-6.4-7.9-10.3C35.3,35.3,35.2,34.7,35.1,34.1z"/>
		<path class="st1" d="M90.9,64.5c-4.6,1.9-9.3,3.7-14,5.4c-0.3-0.4-0.6-0.5-0.9-0.7c-1.9-1.3-4.1-3-6-4.3c2.7,0,5.8,0,8.5-0.1
			c1.4,0,2.3-0.8,2.3-2.5c0-1.6-1-2.7-2.4-2.7c-3.1,0-6.2-0.1-9.2-0.1c0.3-1.7,1.5-3,2.5-4.4c0.4-0.6,0.7-1.3,1.4-1.6
			c5.2,3.2,10.5,6.5,15.7,9.7C89.5,63.8,90.2,64.1,90.9,64.5z"/>
		<path class="st1" d="M28.6,180.7c0.5-1.3,0.1-2.8,0.5-4.1c0.4-1.3,0.5-2.7,1.3-3.8c0.1,0.4,0.3,0.8,0.4,1.2
			c-0.8,0.7-1.1,1.7-1.2,2.7c-0.1,2,0.7,2.9,2.7,2.9c0.4,0,0.8,0,1.3,0.1c1.2,2.6,3.1,4.8,4.8,7.1c-1.5,1.6-3.5,2.2-5.6,2.6
			c-0.5,0.1-1,0.2-1.5,0.3C29.7,186.9,29.2,183.8,28.6,180.7z"/>
		<path class="st5" d="M38.3,26.8c-0.5-0.8-1-1.7-1.5-2.5c-0.1-1.1,0.6-1.8,1-2.7c0.8-1.4,1.5-2.8,2.5-4c9.1,0,18.1,0,27.2,0
			c0.9,0,1.9,0,2.8,0c5.6,0,11.2,0,16.8,0.1c-2.1,1.6-4.4,2.7-6.6,4.1c-3,1.8-6.1,3.5-9.1,5.2c-5.3,0-10.7,0-16,0
			C49.7,26.9,44,26.8,38.3,26.8z"/>
		<path class="st3" d="M87.2,17.7c-5.6,0-11.2,0-16.8-0.1c-0.9,0-1.9,0-2.8,0c-0.5-0.6-0.9-1.2-1.4-1.8c-0.8-0.8-0.8-1.4,0.1-2
			c0.7-0.5,1.2-1.2,1.8-1.7c5.9,0,11.8,0,17.6,0c-1.6,0.9-3.3,1.4-4.9,2.1c-0.3,0.1-0.9,0.2-0.7,0.7c0.2,0.4,0.7,0.2,1,0
			c2.4-1,4.9-2,7.3-3c2.7,0,5.5,0.1,8.2,0.1C93.7,14.1,90.5,16,87.2,17.7z"/>
		<path class="st4" d="M70.8,65.2c-3.5,0-7,0-10.5-0.1c-0.5,0-1.5,0-2,0c0.4-0.8,1-1.4,1.6-2.1c0.4-0.5,0.6-0.8-0.1-1.3
			c-0.7-0.6-1.3-1.3-2-1.9c1.3,0,3.2-0.1,4.5-0.2c2.5-0.1,4.9,0.1,7.4-0.1c3.1,0,6.2,0.1,9.2,0.1c1.4,0,2.4,1.1,2.4,2.7
			c0,1.7-1,2.8-2.4,2.9C76.3,65.2,73.5,65.2,70.8,65.2z"/>
		<path class="st3" d="M57.8,59.8c0.7,0.7,1.3,1.4,2,1.9c0.6,0.5,0.5,0.8,0.1,1.3c-0.6,0.7-1.2,1.3-1.6,2.1c-6.1,0-12.3,0-18.4,0
			c1.4-2,2.7-4.1,4.8-5.5C49.1,59.7,53.5,59.8,57.8,59.8z"/>
		<path class="st5" d="M43.2,32.6c4.2,0,8.4,0,12.5,0c2.1,0,4.3,0,6.4,0"/>
		<path class="st5" d="M54,53.9"/>
		<path class="st5" d="M61.8,59.7c-1.3,0-2.6,0.1-3.9,0.1c-4.4,0-8.7-0.1-13.1-0.1"/>
		<path class="st1" d="M62.2,32.6c-2.1,0-4.3,0-6.4,0c1.5-2,1.4-3.9-0.4-5.7c5.3,0,10.7,0,16,0C68.4,28.8,65.4,30.8,62.2,32.6z"/>
		<path class="st5" d="M100.1,149.7c-0.9,0.6-1.8,1.3-2.6,1.9c-2.5,1.5-5.1,3-7.6,4.4c-1.6,0.9-3,2-4.8,2.4c-6.9,0-13.8,0-20.7,0
			c-1.3,0-2.6,0-3.9,0c-6,0-11.9,0-17.9-0.1c1-1.3,2.4-2,3.7-3c2.5-1.9,5.1-3.6,7.7-5.5c0.2-0.2,0.5-0.3,0.8-0.4
			c3.5,0,6.9,0.1,10.4,0c5.1,0,10.2,0,15.3-0.1c1.8,0,3.6,0,5.4,0C90.6,149.6,95.4,149.6,100.1,149.7z"/>
		<path class="st5" d="M30.8,174c-0.1-0.4-0.3-0.8-0.4-1.2c1.5-3.3,3.6-6.2,6.1-8.8c9.1,0,18.3,0,27.4,0c3.6,0,7.2,0.1,10.8,0.1
			c-1.6,1.3-3.5,2.1-5.2,3.2c-3.4,2.2-6.9,4.3-10.3,6.5c-0.2,0.1-0.5,0.2-0.7,0.3c-4.5,0-9.1,0-13.6,0C40.1,174,35.4,174,30.8,174z"
			/>
		<path class="st3" d="M74.6,164.1c-3.6,0-7.2-0.1-10.8-0.1c-0.4-0.6-0.8-1.2-1.3-1.7c-0.7-0.7-0.7-1.3,0.1-2c0.6-0.5,1.3-1,1.7-1.8
			c6.9,0,13.8,0,20.7,0c0,0.2-0.2,0.3-0.4,0.5C81.3,160.6,78,162.3,74.6,164.1z"/>
		<path class="st5" d="M38.4,186.8c-1.7-2.3-3.6-4.5-4.8-7.1c3.8,0,7.6,0,11.4,0c1.7,0,3.4,0,5.2,0c-1.7,1.7-3.8,2.8-5.6,4.3
			c-1.3,1.1-2.8,2.1-4.1,3.2C39.4,188.1,39,187.3,38.4,186.8z"/>
		<path class="st1" d="M50.2,179.7c-1.7,0-3.4,0-5.2,0c1.4-2,1.5-3.9-0.2-5.7c4.5,0,9.1,0,13.6,0C55.7,176.1,53,178,50.2,179.7z"/>
		<path class="st4" d="M64.4,158.4c-0.4,0.8-1.1,1.3-1.7,1.8c-0.8,0.7-0.8,1.3-0.1,2c0.5,0.5,0.9,1.1,1.3,1.7c-9.1,0-18.3,0-27.4,0
			c1.8-2.1,3.9-4,6.2-5.7c6,0,11.9,0,17.9,0.1C61.8,158.4,63.1,158.4,64.4,158.4z"/>
		<path class="st4" d="M105.3,134.7c-5,0-10.1,0-15.1-0.1c-0.9,0-1.8,0-2.7,0c0.1-0.1,0.2-0.3,0.3-0.4c2-2.3,2-2.3-0.2-4.4
			c-0.2-0.2-0.4-0.4-0.7-0.6c0.1-0.1,0.2-0.1,0.3-0.2c3.1,0,6.1,0,9.2,0c4,0,8,0,12.1,0c1.4,0,2.5,1.2,2.5,2.9c0,1.6-1,2.8-2.5,2.8
			C107.4,134.7,106.3,134.7,105.3,134.7z"/>
		<path class="st1" d="M63,143.9c6,0,12,0,18,0.1c-1.6,1.7-1.9,3.6-0.5,5.6c-5.1,0-10.2,0.1-15.3,0.1c-3.5,0-6.9,0-10.4,0
			c0.6-0.8,1.5-1.2,2.3-1.8C59.1,146.5,60.9,145,63,143.9z"/>
		<path class="st3" d="M86.9,129.2c0.2,0.2,0.5,0.4,0.7,0.6c2.2,2.1,2.2,2.1,0.2,4.4c-0.1,0.1-0.2,0.3-0.3,0.4c-3.2,0-6.4,0-9.5,0
			C80.9,132.7,83.8,130.8,86.9,129.2z"/>
		<path class="st5" d="M96.4,129c-3.1,0-6.1,0-9.2,0"/>
		<path class="st3" d="M107.4,93.1c-4.4,0-8.7,0-13.1-0.1c-3.6,0-8.3,0-12,0c0.7-1.9,0.6-3.9,0-5.7c0.9,0,2.8,0.1,3.7,0.1
			c5.8,0,11.5,0,17.3-0.1c1.3,0,2.6,0,3.8,0c2,0,3.1,1.3,2.8,3.3C109.7,92.5,109.2,93,107.4,93.1z"/>
		<path class="st6" d="M75.4,101.7c4.5,0,8.9,0,13.4,0c1.7,1.7,1.8,3.6,0.5,5.6c-1.1,0-2.1,0.1-3.2,0.1c-6.2,0-12.4,0-18.7,0
			c-1.2,0.1-2-0.3-2.3-1.6c-0.4-1.4,0-2.7,0.8-3.9c0.3-0.4,0.8-0.2,1.2-0.2C69.8,101.7,72.6,101.7,75.4,101.7z"/>
		<path class="st6" d="M80.5,149.5c-1.4-2-1.2-3.8,0.5-5.6c8.9,0,17.8,0,26.7,0c-2.4,2.1-4.9,4-7.6,5.7c-4.7,0-9.5,0-14.2-0.1
			C84.1,149.6,82.3,149.6,80.5,149.5z"/>
		<path class="st1" d="M100.8,73.3c-6,0-10.5,0.7-16.5,0.7c-1.6-0.9-5.7-3.1-7.5-4c4.6-1.8,9.4-3.6,14-5.4c3.6,2.4,8.2,5.2,11.6,7.8
			C102,72.8,101.5,73.2,100.8,73.3z"/>
		<path class="st6" d="M71.7,73.4c1.2,1.8,1.2,3.6,0.3,5.5c-1.8,0-3.6,0-5.3,0c-1.5-2.5-1.5-3,0.2-5.5
			C68.5,73.4,70.1,73.4,71.7,73.4z"/>
		<path class="st3" d="M82.4,87.3c1,1.9,1.1,3.8,0,5.7c-1.3,0-2.6-0.1-4-0.1c-0.1-0.2-0.2-0.4-0.3-0.5c-0.5-0.8-1.8-1.5-1.5-2.4
			c0.2-0.8,1.3-1.4,2-2.1c0.1-0.1,0.3-0.4,0.4-0.6C80.1,87.2,81.3,87.3,82.4,87.3z"/>
		<path class="st5" d="M61.5,79c1.7,0,3.4-0.1,5.1-0.1c1.8,0,3.6,0,5.3,0"/>
		<path class="st5" d="M71.7,73.4c-1.6,0-3.2,0-4.8,0c-1.6,0-3.3,0-4.9-0.1"/>
		<path class="st6" d="M55.4,26.9c1.7,1.8,1.9,3.7,0.4,5.7c-4.2,0-8.4,0-12.5,0c-1.7,0-3.3-0.1-5,0c-0.8,0-1.3-0.3-1.6-1
			c-0.7-1.5-0.4-2.8,0.3-4.2c0.3-0.6,0.9-0.4,1.3-0.5C44,26.8,49.7,26.9,55.4,26.9z"/>
		<path class="st6" d="M44.8,174c1.7,1.8,1.7,3.7,0.2,5.7c-3.8,0-7.6,0-11.4,0c-0.4,0-0.8-0.1-1.3-0.1c-2,0-2.9-0.9-2.7-2.9
			c0.1-1,0.4-2,1.2-2.7C35.4,174,40.1,174,44.8,174z"/>
		<path class="st6" d="M71.7,73.5c1.3,0,10.4,0,11.7-0.1c2.5-0.1,4.9,0.1,7.4-0.1c3.1,0,6.2,0.1,9.2,0.1c1.4,0,2.4,1.1,2.4,2.7
			c0,1.7-1,2.8-2.4,2.9c-2.7,0-5.5,0-8.2,0.1c-3.5,0-7,0-10.5-0.1c-0.5,0-8.9,0-9.4,0"/>
	</g>
</g>
</svg>
