<?xml version="1.0" encoding="utf-8"?>
<!-- Generator: Adobe Illustrator 24.1.0, SVG Export Plug-In . SVG Version: 6.00 Build 0)  -->
<svg version="1.1" id="Layer_1" xmlns="http://www.w3.org/2000/svg" xmlns:xlink="http://www.w3.org/1999/xlink" x="0px" y="0px"
	 viewBox="0 0 538 211.8" style="enable-background:new 0 0 538 211.8;" xml:space="preserve">
<style type="text/css">
	.st0{fill:#FDFEFE;}
	.st1{fill:#0273BC;}
	.st2{fill:#0675BD;}
	.st3{fill:#0273BB;}
	.st4{fill:#FBB615;}
	.st5{fill:#E52A2C;}
	.st6{fill:#032A59;}
	.st7{fill:#0473BB;}
</style>
<g>
	<path class="st0" d="M269,215.8c-88.3,0-176.6,0-264.9,0.1c-3.4,0-4.1-0.7-4.1-4.1C0.1,141.2,0.1,70.6,0,0c0-3.4,0.7-4.1,4.1-4.1
		C180.7-4,357.3-4,533.9-4.1c3.4,0,4.1,0.7,4.1,4.1c-0.1,70.6-0.1,141.2,0,211.8c0,3.4-0.7,4.1-4.1,4.1
		C445.6,215.8,357.3,215.8,269,215.8z M251.9,167.7c1.3,0.1,2.7,0.4,4,0.2c5.8-0.8,5.8-0.8,9.9-6.7c10.7-27.3,21.8-54.5,32.7-81.7
		c4.6-11.3,9.1-22.7,13.8-34.4c-3.5,0-6.5,0-9.4,0c-4.5,0-9.1,0-13.6,0c-1.7,0-3.4,0-5.1,0c-4.5-0.1-9,0.1-13.5-0.2
		c-3.4-0.3-4.8,1-5.9,4.2c-7.2,21.2-14.7,42.3-22.1,63.5c-7.2-20.7-14.6-41.3-21.5-62.1c-1.5-4.5-3.5-5.7-8.1-5.6
		c-11.5,0.3-23,0.3-34.5,0c-4.3-0.1-5.4,0.5-3.6,5c15.5,38.1,30.9,76.4,46.3,114.5c0.5,1.2,1.4,3.4,2.5,3.3c3.5,0,6.9,0,10.4,0
		c4.2,0,8.3,0,12.5,0C248.4,167.7,250.1,167.7,251.9,167.7z M48.9,84.9c0.1,0,0.1,0,0.2,0c0,11.5-0.3,23,0.1,34.4
		c0.9,26.4,16.4,44,42.2,48.6c9.6,1.7,19.1,1.8,28.8,1c29.3-2.5,47.5-20.6,49-49.9c1.2-23.6,0.2-47.2,0.5-70.9c0-3.3-1.6-3.3-4-3.3
		c-10.8,0.1-21.6,0.3-32.5-0.1c-4.4-0.1-5.5,1-5.4,5.4c0.3,21,0.2,41.9,0.1,62.9c-0.1,12.5-6.4,19.7-17.4,19.9
		c-12.5,0.2-19.1-6.2-19.8-19.1c-0.1-1.5,0-3,0-4.5c0-20-0.1-39.9,0.1-59.9c0-3.8-1-4.7-4.7-4.6c-11,0.3-22,0.2-33,0
		c-3.2-0.1-4.2,0.8-4.2,4.1C49,61,48.9,73,48.9,84.9z M368.8,106.3c0,34.4,24,60.9,58.5,63.2c25.4,1.8,46.3-7.1,60.5-29.3
		c1.7-2.7,1.7-4-1.4-5.6c-8.4-4.4-16.8-8.9-24.7-14c-4.3-2.8-6.3-2.4-9.1,1.9c-5.4,8.2-13.6,11.8-23.3,10
		c-9.9-1.8-15.4-8.7-17.8-18.1c-1.1-4.1-1.1-8.2-0.7-12.4c1.1-11,7.7-19.7,16.7-22c10.5-2.7,19.1,0.9,25.9,11.2
		c1.5,2.3,2.5,2.7,4.9,1.2c8.8-5.4,17.7-10.6,26.7-15.6c3.3-1.8,3.9-3.3,1.7-6.6c-11.5-17.1-27.4-25.8-47.9-27.5
		C400.4,39.4,368.8,67.9,368.8,106.3z M316.4,106c0,19,0.1,37.9-0.1,56.9c0,3.2,0.7,4.3,4.1,4.3c11-0.2,22-0.2,33,0
		c2.8,0,4.2-0.4,4.2-3.7c-0.1-38.3-0.1-76.5,0-114.8c0-3.4-1.4-3.7-4.2-3.7c-10.8,0.1-21.6,0.2-32.5,0c-3.8-0.1-4.7,1-4.7,4.7
		C316.5,68.4,316.4,87.2,316.4,106z"/>
	<path class="st1" d="M49.1,85.1c0-12,0.1-24-0.1-35.9c-0.1-3.3,0.9-4.2,4.2-4.1c11,0.2,22,0.2,33,0c3.7-0.1,4.8,0.8,4.7,4.6
		c-0.2,20-0.1,39.9-0.1,59.9c0,1.5-0.1,3,0,4.5c0.7,13,7.3,19.4,19.8,19.1c11-0.2,17.4-7.3,17.4-19.9c0.1-21,0.2-41.9-0.1-62.9
		c-0.1-4.4,1-5.6,5.4-5.4c10.8,0.4,21.6,0.2,32.5,0.1c2.4,0,4,0.1,4,3.3c-0.4,23.6,0.7,47.3-0.5,70.9c-1.5,29.2-19.7,47.4-49,49.9
		c-9.7,0.8-19.2,0.7-28.8-1c-25.8-4.6-41.3-22.2-42.2-48.6c-0.4-11.5-0.1-23-0.1-34.4C49.2,85.1,49.1,85.1,49.1,85.1z"/>
	<path class="st1" d="M368.9,106.4c0-38.4,31.6-66.9,69.9-63.6c20.5,1.7,36.4,10.5,47.9,27.5c2.2,3.3,1.6,4.8-1.7,6.6
		c-9,5-17.9,10.2-26.7,15.6c-2.5,1.5-3.4,1.1-4.9-1.2c-6.7-10.2-15.4-13.9-25.9-11.2c-9,2.3-15.6,11-16.7,22
		c-0.4,4.2-0.4,8.4,0.7,12.4c2.5,9.4,7.9,16.3,17.8,18.1c9.8,1.8,17.9-1.8,23.3-10c2.8-4.3,4.8-4.7,9.1-1.9c8,5.1,16.4,9.6,24.7,14
		c3,1.6,3.1,2.9,1.4,5.6c-14.1,22.2-35,31.1-60.5,29.3C392.9,167.3,368.9,140.8,368.9,106.4z"/>
	<path class="st2" d="M316.5,106.1c0-18.8,0.1-37.6-0.1-56.4c0-3.7,0.9-4.8,4.7-4.7c10.8,0.3,21.6,0.2,32.5,0c2.8,0,4.2,0.3,4.2,3.7
		c-0.1,38.3-0.1,76.5,0,114.8c0,3.4-1.4,3.8-4.2,3.7c-11-0.1-22-0.2-33,0c-3.4,0.1-4.2-1.1-4.1-4.3
		C316.6,144,316.5,125.1,316.5,106.1z"/>
	<path class="st3" d="M223.9,167.8c-1.2-0.2-1.6-0.7-2.5-3.3C206,126.4,190.7,88.2,175.1,50c-1.8-4.5-0.7-5.1,3.6-5
		c11.5,0.3,23,0.3,34.5,0c4.5-0.1,6.6,1.1,8.1,5.6c6.9,20.8,14.3,41.4,21.5,62.1C236.5,131.1,230.2,149.5,223.9,167.8z"/>
	<path class="st4" d="M223.9,167.8c6.3-18.4,12.6-36.7,18.8-55.1c7.4-21.2,14.9-42.3,22.1-63.5c1.1-3.2,2.5-4.5,5.9-4.2
		c4.5,0.4,9,0.2,13.5,0.2c-0.4,12.1-4.7,23-10.3,33.5c-7.1,13.2-16.2,25.2-24.1,37.9c-9.7,15.7-16.7,32.1-15.6,51.1
		C230.8,167.8,227.4,167.8,223.9,167.8z"/>
	<path class="st5" d="M234.3,167.8c-1.1-19,6-35.4,15.6-51.1c7.9-12.7,17-24.7,24.1-37.9c5.6-10.5,9.9-21.4,10.3-33.5
		c1.7,0,3.4,0,5.1,0c-4.7,13.5-9.3,26.9-14,40.4c-9.5,27.4-19.1,54.8-28.6,82.2C242.6,167.8,238.5,167.8,234.3,167.8z"/>
	<path class="st6" d="M246.8,167.8c9.5-27.4,19.1-54.8,28.6-82.2c4.7-13.5,9.3-26.9,14-40.4c4.5,0,9.1,0,13.6,0
		c0.3,11.9-2.8,23-7.7,33.6c-7.2,15.4-17.8,28.8-26.8,43.2c-8.8,14-16.4,28.6-16.5,45.7C250.3,167.8,248.5,167.8,246.8,167.8z"/>
	<path class="st7" d="M252,167.8c0.1-17.2,7.7-31.7,16.5-45.7c9-14.3,19.5-27.7,26.8-43.2c5-10.7,8-21.8,7.7-33.6c3,0,5.9,0,9.4,0
		c-4.7,11.7-9.3,23.1-13.8,34.4c-10.9,27.2-22,54.4-32.7,81.7c-3.5,6.7-7.8,6.5-9.8,6.5C254.7,167.8,253.4,167.8,252,167.8z"/>
</g>
</svg>
